<svg width="747" height="125" viewBox="0 0 747 125" fill="none" xmlns="http://www.w3.org/2000/svg">
<path d="M188.44 42.9735C187.994 39.9637 186.99 37.2326 185.43 34.7801C183.869 32.2162 181.918 29.9867 179.577 28.0916C177.236 26.1966 174.561 24.7474 171.551 23.7441C168.653 22.6294 165.587 22.072 162.355 22.072C156.446 22.072 151.43 23.2425 147.305 25.5835C143.181 27.813 139.837 30.8785 137.273 34.7801C134.709 38.5703 132.814 42.9178 131.588 47.8227C130.473 52.7276 129.915 57.7997 129.915 63.039C129.915 68.0553 130.473 72.9602 131.588 77.7537C132.814 82.4356 134.709 86.6716 137.273 90.4618C139.837 94.2519 143.181 97.3175 147.305 99.6584C151.43 101.888 156.446 103.003 162.355 103.003C170.381 103.003 176.623 100.55 181.082 95.6454C185.653 90.7405 188.44 84.2749 189.443 76.2487H214.859C214.19 83.7176 212.462 90.4618 209.676 96.4814C206.889 102.501 203.21 107.629 198.64 111.865C194.069 116.101 188.718 119.334 182.587 121.563C176.456 123.793 169.712 124.907 162.355 124.907C153.214 124.907 144.964 123.347 137.607 120.226C130.361 116.993 124.23 112.59 119.214 107.016C114.197 101.442 110.352 94.9208 107.676 87.452C105.001 79.8717 103.663 71.734 103.663 63.039C103.663 54.121 105.001 45.8719 107.676 38.2916C110.352 30.5998 114.197 23.9113 119.214 18.2261C124.23 12.5409 130.361 8.08192 137.607 4.84915C144.964 1.61638 153.214 0 162.355 0C168.932 0 175.118 0.947533 180.915 2.8426C186.823 4.73767 192.063 7.52454 196.633 11.2032C201.315 14.7704 205.161 19.2294 208.171 24.5802C211.181 29.931 213.076 36.0621 213.856 42.9735H188.44Z" fill="black"/>
<path d="M218.258 63.039C218.258 54.121 219.596 45.8719 222.271 38.2916C224.947 30.5998 228.793 23.9113 233.809 18.2261C238.825 12.5409 244.957 8.08192 252.202 4.84915C259.56 1.61638 267.809 0 276.95 0C286.202 0 294.451 1.61638 301.697 4.84915C308.943 8.08192 315.074 12.5409 320.091 18.2261C325.107 23.9113 328.953 30.5998 331.628 38.2916C334.304 45.8719 335.641 54.121 335.641 63.039C335.641 71.734 334.304 79.8717 331.628 87.452C328.953 94.9208 325.107 101.442 320.091 107.016C315.074 112.59 308.943 116.993 301.697 120.226C294.451 123.347 286.202 124.907 276.95 124.907C267.809 124.907 259.56 123.347 252.202 120.226C244.957 116.993 238.825 112.59 233.809 107.016C228.793 101.442 224.947 94.9208 222.271 87.452C219.596 79.8717 218.258 71.734 218.258 63.039Z" fill="#B00000"/>
<path d="M383.016 79.9274C407.596 74.7438 426.993 81.2651 424.317 99.324C420.806 122.399 391.209 125.242 368.468 123.57C336.196 121.062 335.193 99.324 341.046 67.8881C347.4 33.7769 364.79 1.5049 389.872 1.5049C421.642 1.5049 403.75 46.9866 382.849 78.0881C375.324 79.7602 367.465 82.2684 359.606 85.9471L360.275 87.6192C367.967 84.1077 375.659 81.5995 383.016 79.9274Z" fill="#B00000"/>
<path d="M422.956 63.039C422.956 54.121 424.294 45.8719 426.969 38.2916C429.645 30.5998 433.49 23.9113 438.507 18.2261C443.523 12.5409 449.654 8.08192 456.9 4.84915C464.257 1.61638 472.507 0 481.648 0C490.9 0 499.149 1.61638 506.395 4.84915C513.641 8.08192 519.772 12.5409 524.788 18.2261C529.805 23.9113 533.651 30.5998 536.326 38.2916C539.001 45.8719 540.339 54.121 540.339 63.039C540.339 71.734 539.001 79.8717 536.326 87.452C533.651 94.9208 529.805 101.442 524.788 107.016C519.772 112.59 513.641 116.993 506.395 120.226C499.149 123.347 490.9 124.907 481.648 124.907C472.507 124.907 464.257 123.347 456.9 120.226C449.654 116.993 443.523 112.59 438.507 107.016C433.49 101.442 429.645 94.9208 426.969 87.452C424.294 79.8717 422.956 71.734 422.956 63.039Z" fill="#B00000"/>
<path d="M569.487 56.8521H598.248C604.268 56.8521 608.782 55.5144 611.792 52.839C614.802 50.1636 616.307 45.8161 616.307 39.7965C616.307 33.9998 614.802 29.8195 611.792 27.2556C608.782 24.5802 604.268 23.2425 598.248 23.2425H569.487V56.8521ZM543.235 2.8426H607.612C612.963 2.8426 617.756 3.7344 621.992 5.518C626.34 7.19012 630.018 9.53109 633.028 12.5409C636.149 15.5507 638.49 19.0622 640.051 23.0753C641.723 26.9769 642.559 31.2129 642.559 35.7834C642.559 42.8063 641.054 48.8817 638.044 54.0095C635.146 59.1374 630.353 63.039 623.664 65.7144V66.0488C626.897 66.9406 629.572 68.334 631.69 70.2291C633.808 72.0127 635.536 74.1865 636.874 76.7504C638.212 79.2028 639.159 81.934 639.717 84.9438C640.385 87.9536 640.831 90.9634 641.054 93.9732C641.166 95.8683 641.277 98.0978 641.389 100.662C641.5 103.226 641.667 105.845 641.89 108.521C642.225 111.196 642.671 113.76 643.228 116.212C643.897 118.553 644.844 120.56 646.071 122.232H619.818C618.369 118.442 617.477 113.927 617.143 108.688C616.809 103.449 616.307 98.4322 615.638 93.6388C614.746 87.3962 612.851 82.8258 609.953 79.9274C607.054 77.0291 602.317 75.5799 595.74 75.5799H569.487V122.232H543.235V2.8426Z" fill="black"/>
<path d="M84.9438 33.5146L23.5769 57.9275L84.9438 82.3405V101.403L0 67.793V48.062L84.9438 14.2852V33.5146Z" fill="#B00000"/>
<path d="M661.673 33.5146L723.04 57.9275L661.673 82.3405V101.403L746.617 67.793V48.062L661.673 14.2852V33.5146Z" fill="#B00000"/>
</svg>
